<svg width="30" height="29" viewBox="0 0 30 29" fill="none" xmlns="http://www.w3.org/2000/svg">
<path d="M7.24804 28.9188C6.47553 28.748 5.7142 28.533 4.96804 28.275C3.85733 27.8555 2.86831 27.1821 2.08566 26.3124C1.303 25.4427 0.750017 24.4026 0.474037 23.2812C0.302685 22.6388 0.214014 21.9784 0.210037 21.315C0.210037 16.7504 0.210037 12.1858 0.210037 7.62119C0.202828 6.05407 0.706025 4.52451 1.64831 3.24928C2.5906 1.97406 3.92417 1.01785 5.46004 0.51619C6.27792 0.257779 7.13165 0.120886 7.99204 0.11019C12.732 0.0753898 17.472 0.0637899 22.2 0.10439C24.2571 0.116662 26.225 0.917581 27.6717 2.33128C29.1184 3.74497 29.9256 5.65588 29.916 7.64439C29.916 12.18 29.916 16.7156 29.916 21.2454C29.9415 22.7663 29.4864 24.2585 28.6116 25.5228C27.7368 26.7871 26.4839 27.7634 25.02 28.3214C24.2825 28.5574 23.5312 28.7511 22.77 28.9014H17.136C17.136 28.6868 17.136 28.478 17.136 28.2634C17.136 25.3054 17.136 22.3474 17.136 19.3894C17.136 18.7746 17.136 18.7746 17.736 18.7688C18.552 18.7688 19.368 18.7688 20.184 18.7688C20.52 18.7688 20.682 18.647 20.718 18.3396C20.718 18.1424 20.766 17.951 20.802 17.7596C20.952 16.791 21.09 15.8166 21.264 14.8596C21.36 14.3376 21.336 14.2796 20.778 14.2796C19.71 14.2796 18.642 14.2796 17.58 14.2796C17.268 14.2796 17.118 14.1868 17.118 13.8678C17.118 13.0036 17.118 12.1278 17.118 11.2752C17.1177 11.0387 17.1672 10.8046 17.2636 10.5872C17.36 10.3698 17.5013 10.1737 17.6787 10.0108C17.8562 9.84797 18.0661 9.7218 18.2957 9.64002C18.5253 9.55824 18.7697 9.52257 19.014 9.53519C19.734 9.53519 20.46 9.53519 21.18 9.53519C21.54 9.53519 21.696 9.41919 21.69 9.06539C21.69 7.92859 21.69 6.79179 21.69 5.65499C21.69 5.32439 21.564 5.19679 21.216 5.20259C20.214 5.20259 19.206 5.20259 18.216 5.20259C17.6518 5.20108 17.0888 5.2555 16.536 5.36499C15.3149 5.63273 14.2255 6.2968 13.4492 7.24661C12.673 8.19642 12.2569 9.37462 12.27 10.585C12.27 11.629 12.234 12.6788 12.27 13.7228C12.27 14.2274 12.096 14.3492 11.634 14.3434C10.722 14.3434 9.83404 14.3434 8.90404 14.3434C8.50804 14.3434 8.34004 14.4594 8.34604 14.8654C8.34604 16.0254 8.34604 17.2318 8.34604 18.415C8.34604 18.7804 8.49004 18.8848 8.85004 18.879C9.82204 18.879 10.794 18.879 11.766 18.879C12.162 18.879 12.264 19.0008 12.264 19.372C12.264 22.388 12.264 25.4098 12.264 28.4258C12.264 28.6056 12.264 28.7854 12.294 28.971L7.24804 28.9188Z" fill="#D41E79"/>
</svg>
