<?xml version="1.0" encoding="UTF-8"?>
<svg xmlns="http://www.w3.org/2000/svg" xmlns:xlink="http://www.w3.org/1999/xlink" width="389.8pt" height="389.8pt" viewBox="0 0 389.8 389.8" version="1.1">
<g id="surface1">
<path style=" stroke:none;fill-rule:evenodd;fill:#D41E79;fill-opacity:1;" d="M 75.109375 -0.0585938 L 315.160156 -0.0585938 C 321.839844 0.464844 328.53125 1.339844 334.933594 3.394531 C 349.328125 7.921875 362.398438 16.644531 372.023438 28.277344 C 380.179688 38.285156 385.945313 50.289063 388.382813 62.984375 C 389.222656 66.945313 389.519531 70.984375 389.839844 75.011719 L 389.839844 315.453125 C 389.285156 322.613281 388.109375 329.761719 385.785156 336.578125 C 381.589844 349.097656 374.113281 360.445313 364.425781 369.394531 C 351.117188 381.539063 333.511719 388.792969 315.539063 389.75 L 74.328125 389.75 C 61.476563 389.039063 48.796875 385.179688 37.761719 378.535156 C 20.289063 368.152344 7.332031 350.53125 2.410156 330.832031 C 1.140625 325.914063 0.523438 320.871094 0.0390625 315.835938 L 0.0390625 74.621094 C 0.367188 71.300781 0.546875 67.953125 1.183594 64.671875 C 3.675781 50.003906 10.546875 36.128906 20.574219 25.152344 C 31.960938 12.882813 47.285156 4.214844 63.789063 1.238281 C 67.53125 0.554688 71.324219 0.273438 75.109375 -0.0585938 Z M 75.109375 -0.0585938 "/>
<path style=" stroke:none;fill-rule:evenodd;fill:rgb(100%,100%,100%);fill-opacity:1;" d="M 217.480469 74.777344 C 215.3125 75.230469 213.132813 75.640625 210.960938 76.074219 C 198.40625 79.078125 186.863281 85.914063 177.980469 95.253906 C 166.0625 107.722656 159.296875 124.972656 159.550781 142.21875 C 159.617188 156.753906 164.660156 171.191406 173.570313 182.65625 C 175.863281 185.789063 178.601563 188.546875 181.351563 191.28125 C 184.285156 194.1875 187.171875 197.148438 190.121094 200.046875 C 194.003906 203.421875 197.417969 207.277344 201.074219 210.886719 C 208.796875 218.953125 214.082031 229.421875 215.578125 240.519531 C 217.5 253.527344 214.214844 267.171875 206.714844 277.960938 C 202.734375 284.136719 197.117188 289.089844 190.929688 292.96875 C 184.109375 297.195313 176.335938 299.902344 168.339844 300.636719 C 164.769531 300.828125 161.191406 300.828125 157.621094 300.628906 C 152.949219 300.128906 148.359375 298.976563 143.984375 297.28125 C 137.738281 294.941406 132.117188 291.179688 127.132813 286.796875 C 109.519531 269.105469 91.789063 251.53125 74.234375 233.789063 C 76.097656 231.878906 78.921875 231.265625 81.507813 231.472656 C 85.578125 231.757813 89.386719 233.554688 92.652344 235.929688 C 95.082031 237.46875 96.984375 239.652344 99.105469 241.566406 C 104.5 246.960938 109.777344 252.464844 115.308594 257.714844 C 117.234375 259.515625 120.285156 260.222656 122.707031 259.046875 C 125.351563 257.898438 127.257813 255.050781 126.988281 252.128906 C 127.039063 250.410156 126.1875 248.8125 125.078125 247.550781 C 118.9375 241.222656 112.5 235.179688 106.484375 228.730469 C 102.542969 225.136719 98.882813 221.253906 95.078125 217.523438 C 84.75 207.191406 74.429688 196.851563 64.082031 186.539063 C 62.640625 185.074219 60.679688 183.492188 60.941406 181.195313 C 61.003906 178.078125 64.757813 175.796875 67.542969 177.273438 C 68.773438 178.078125 69.773438 179.179688 70.835938 180.183594 C 84.023438 193.367188 97.230469 206.539063 110.390625 219.753906 C 112.667969 221.871094 116.402344 222.347656 119.058594 220.691406 C 120.464844 219.628906 121.953125 218.355469 122.289063 216.53125 C 122.839844 214.421875 122.570313 211.886719 121.09375 210.210938 C 111.980469 201.128906 102.917969 192.003906 93.804688 182.933594 C 88.902344 177.964844 83.851563 173.132813 79.113281 167.996094 C 76.378906 165.539063 73.734375 162.976563 71.261719 160.253906 C 69.515625 158.492188 69.558594 155.253906 71.488281 153.644531 C 73.195313 152.128906 76.0625 152.203125 77.660156 153.851563 C 93.539063 169.671875 109.394531 185.53125 125.242188 201.386719 C 126.765625 202.757813 128.164063 204.523438 130.289063 204.9375 C 133.96875 205.929688 137.96875 203.339844 138.957031 199.753906 C 139.152344 198.570313 139.15625 197.347656 138.960938 196.171875 C 138.476563 194.117188 136.890625 192.613281 135.425781 191.210938 C 121.4375 177.257813 107.511719 163.246094 93.511719 149.308594 C 92.828125 148.628906 92.179688 147.855469 91.972656 146.886719 C 91.191406 144.074219 93.808594 140.964844 96.726563 141.273438 C 99.089844 141.386719 100.585938 143.46875 102.117188 145.003906 C 115.199219 158.164063 128.371094 171.234375 141.464844 184.390625 C 142.980469 185.90625 144.480469 187.664063 146.617188 188.265625 C 148.566406 188.652344 150.726563 188.511719 152.433594 187.414063 C 154.1875 186.136719 155.4375 184.148438 155.707031 181.984375 C 155.929688 179.855469 155.074219 177.679688 153.578125 176.175781 C 146.289063 168.914063 138.988281 161.664063 131.726563 154.371094 C 128.851563 151.128906 125.300781 148.507813 122.722656 145.003906 C 121.527344 143.386719 121.660156 141.070313 122.851563 139.496094 C 124.113281 138.03125 126.246094 137.714844 128.03125 138.214844 C 129.824219 139.191406 131.105469 140.84375 132.570313 142.222656 C 134.371094 143.933594 135.984375 146.121094 138.488281 146.820313 C 142.269531 147.925781 146.664063 145.308594 147.40625 141.421875 C 148.109375 138.65625 146.734375 135.816406 144.695313 133.992188 C 142.664063 132.128906 140.746094 130.144531 138.707031 128.289063 C 134.363281 124.570313 128.269531 122.976563 122.671875 124.1875 C 117.550781 125.3125 112.785156 128.527344 110.242188 133.171875 C 106.730469 129.113281 101.273438 126.851563 95.917969 127.078125 C 89.15625 127.109375 82.726563 131.285156 79.675781 137.269531 C 79.34375 137.726563 79.167969 138.683594 78.40625 138.46875 C 76.148438 138.132813 73.832031 137.929688 71.570313 138.378906 C 65.863281 139.152344 60.785156 142.84375 57.882813 147.761719 C 56.375 150.742188 55.429688 154.054688 55.601563 157.421875 C 55.523438 159.910156 56.4375 162.246094 56.898438 164.652344 C 51.554688 167.277344 47.753906 172.722656 46.925781 178.601563 C 46.132813 183.703125 47.554688 189.140625 50.867188 193.117188 C 52.382813 194.972656 54.15625 196.589844 55.832031 198.296875 C 61.242188 203.671875 66.589844 209.109375 72.011719 214.472656 C 73.027344 215.507813 74.207031 216.425781 74.933594 217.703125 C 70.003906 218.765625 65.230469 221.320313 62.167969 225.398438 C 59.875 228.34375 58.90625 232.101563 58.71875 235.773438 C 58.628906 237.878906 59.652344 239.886719 61.164063 241.300781 C 79.207031 259.253906 97.15625 277.289063 115.203125 295.238281 C 127.90625 308.136719 145.988281 315.753906 164.140625 315.175781 C 169.667969 315.3125 175.136719 314.300781 180.46875 312.933594 C 192.472656 309.800781 203.460938 303.121094 212.023438 294.175781 C 223.03125 282.445313 229.898438 266.734375 230.386719 250.59375 C 231.054688 236.359375 226.882813 222.011719 218.9375 210.214844 C 215.859375 205.59375 212.078125 201.507813 208.125 197.632813 C 202.402344 191.796875 196.40625 186.230469 190.707031 180.367188 C 184.511719 174.640625 179.882813 167.320313 176.960938 159.429688 C 172.777344 147.9375 172.84375 134.996094 177.007813 123.507813 C 179.644531 116.710938 183.347656 110.210938 188.511719 104.996094 C 197.234375 95.816406 209.363281 89.855469 222.027344 88.882813 C 230.324219 88.0625 238.882813 89.1875 246.578125 92.453125 C 253.070313 94.921875 258.832031 98.972656 263.910156 103.65625 C 269.058594 108.640625 273.964844 113.871094 279.070313 118.898438 C 284.167969 123.671875 288.902344 128.816406 293.875 133.71875 C 298.515625 138.171875 303.054688 142.726563 307.511719 147.363281 C 310.019531 149.925781 312.6875 152.335938 315.1875 154.894531 C 315.441406 155.121094 315.59375 155.402344 315.652344 155.738281 C 314.5 157.03125 312.757813 157.570313 311.109375 157.890625 C 308.214844 158.28125 305.21875 157.839844 302.570313 156.609375 C 296.863281 154.148438 292.480469 149.589844 288.1875 145.253906 C 283.316406 140.628906 278.667969 135.789063 273.96875 131.003906 C 272.117188 129.175781 269.230469 128.679688 266.8125 129.53125 C 263.492188 130.636719 261.386719 134.378906 262.1875 137.796875 C 262.507813 140.148438 264.480469 141.652344 266.058594 143.214844 C 285.851563 163.050781 305.6875 182.839844 325.507813 202.65625 C 326.871094 204.136719 328.9375 205.476563 328.972656 207.703125 C 329.257813 210.394531 326.65625 212.996094 323.953125 212.605469 C 322.164063 212.546875 321.003906 211.039063 319.808594 209.914063 C 306.996094 197.132813 294.214844 184.316406 281.410156 171.523438 C 280.136719 170.347656 278.929688 169.035156 277.378906 168.222656 C 274.726563 167.273438 271.339844 167.71875 269.421875 169.910156 C 266.742188 172.578125 266.730469 177.320313 269.46875 179.960938 C 285.820313 196.34375 302.207031 212.703125 318.566406 229.085938 C 319.992188 230.304688 320.167969 232.296875 319.789063 234.023438 C 319.21875 235.144531 318.261719 236.097656 317.144531 236.671875 C 315.589844 236.929688 313.785156 236.996094 312.542969 235.863281 C 310.433594 234.09375 308.605469 232.011719 306.714844 230.019531 C 301.851563 225.398438 297.125 220.636719 292.457031 215.828125 C 283.425781 206.65625 274.25 197.644531 265.117188 188.589844 C 263.472656 187.003906 261.96875 184.914063 259.570313 184.496094 C 257.546875 184.253906 255.257813 184.339844 253.621094 185.714844 C 251.984375 187.257813 250.636719 189.382813 250.847656 191.726563 C 250.757813 193.84375 251.964844 195.734375 253.449219 197.148438 C 267.363281 211.03125 281.257813 224.949219 295.160156 238.851563 C 296.441406 240.164063 298.039063 241.566406 298.046875 243.566406 C 298.152344 246.589844 294.738281 249.085938 291.902344 247.921875 C 290.015625 246.921875 288.699219 245.171875 287.167969 243.71875 C 283.765625 240.234375 280.203125 236.90625 276.941406 233.289063 C 273.113281 229.847656 269.589844 226.089844 265.929688 222.472656 C 259.804688 216.382813 253.699219 210.277344 247.609375 204.148438 C 246.429688 202.976563 245.097656 201.867188 243.496094 201.355469 C 241.777344 201.113281 239.859375 201.023438 238.335938 201.996094 C 236.195313 203.257813 234.351563 205.484375 234.457031 208.09375 C 234.265625 210.144531 235.257813 212.105469 236.671875 213.53125 C 242.09375 219.023438 247.648438 224.382813 253.011719 229.933594 C 257.65625 234.636719 262.425781 239.222656 267.027344 243.96875 C 269.324219 246.273438 267.554688 250.421875 264.636719 251.175781 C 263.265625 251.324219 261.675781 251.429688 260.605469 250.402344 C 258.28125 248.308594 256.242188 245.914063 253.910156 243.835938 C 252.265625 242.367188 249.851563 242.171875 247.777344 242.609375 C 244.082031 243.484375 241.5625 247.613281 242.574219 251.300781 C 243.039063 253.597656 244.964844 255.105469 246.535156 256.679688 C 249.234375 259.191406 251.644531 262.1875 255.089844 263.722656 C 258.785156 265.589844 263.109375 266.089844 267.152344 265.230469 C 272.289063 264.304688 276.640625 260.847656 279.554688 256.621094 C 281.199219 258.054688 282.851563 259.527344 284.847656 260.453125 C 290.015625 263.171875 296.492188 263.363281 301.710938 260.671875 C 305.894531 258.671875 309.179688 255.046875 311.078125 250.851563 C 312.996094 251.339844 314.996094 251.238281 316.960938 251.234375 C 320.730469 251.175781 324.269531 249.46875 327.222656 247.226563 C 330.964844 244.300781 333.390625 239.929688 334.25 235.296875 C 334.402344 233.40625 334.40625 231.507813 334.230469 229.628906 C 334.074219 228.03125 333.199219 226.605469 333.066406 225.007813 C 336.40625 222.851563 339.558594 220.089844 341.28125 216.429688 C 343.785156 211.484375 343.859375 205.394531 341.515625 200.378906 C 339.484375 195.671875 335.230469 192.570313 331.777344 188.980469 C 327.441406 184.484375 323 180.089844 318.570313 175.671875 C 317.359375 174.382813 315.738281 173.386719 314.980469 171.734375 C 320.484375 170.609375 325.875 167.566406 328.746094 162.601563 C 330.578125 159.675781 331.394531 156.171875 331.164063 152.734375 C 330.941406 150.722656 329.6875 149.015625 328.257813 147.671875 C 319.632813 139.011719 310.996094 130.371094 302.363281 121.714844 C 292.382813 111.820313 282.5625 101.761719 272.503906 91.945313 C 263.378906 83.585938 251.9375 77.699219 239.753906 75.421875 C 232.441406 73.902344 224.878906 73.921875 217.480469 74.777344 Z M 217.480469 74.777344 "   />
</g>
</svg>
