<svg width="29" height="29" viewBox="0 0 29 29" fill="none" xmlns="http://www.w3.org/2000/svg">
<g clip-path="url(#clip0)">
<path d="M6.83157 29.0001C6.24274 28.8474 5.65391 28.7359 5.06507 28.5244C3.85899 28.1274 2.77761 27.4234 1.92774 26.482C1.07786 25.5407 0.488887 24.3945 0.218982 23.1567C0.0889688 22.6082 0.0237536 22.0465 0.0246677 21.4829C0.0246677 16.8317 0.0246677 12.1804 0.0246677 7.5291C0.0293099 5.90163 0.565049 4.3199 1.5509 3.02303C2.53675 1.72615 3.91912 0.784618 5.48903 0.340767C6.22609 0.14991 6.98294 0.0454512 7.74426 0.0295079C12.2842 0.000143813 16.8417 -0.0116018 21.3699 0.0295079C22.9784 0.00789135 24.5513 0.502559 25.8564 1.44051C27.1616 2.37847 28.1299 3.71003 28.6184 5.2387C28.8765 6.03556 29.0076 6.86788 29.007 7.70529C29.0423 12.2332 29.007 16.7671 29.007 21.295C29.0195 22.9504 28.4921 24.565 27.5044 25.8955C26.5166 27.2259 25.1221 28.2001 23.5309 28.6713C23.0539 28.8122 22.5534 28.8944 22.0647 29.0001H6.83157ZM14.4864 26.557C16.8123 26.557 19.1323 26.557 21.4582 26.557C22.346 26.5644 23.2192 26.3309 23.9843 25.8817C24.8244 25.4157 25.5164 24.724 25.9818 23.8851C26.4471 23.0462 26.667 22.0938 26.6163 21.1364C26.6163 16.6378 26.6163 12.1354 26.6163 7.62894C26.6318 6.66289 26.3681 5.71282 25.8568 4.8922C25.3679 4.09411 24.6724 3.44219 23.8434 3.00503C23.0144 2.56787 22.0827 2.36162 21.1461 2.408C17.0164 2.408 12.8946 2.408 8.78061 2.408C8.15645 2.408 7.53228 2.408 6.90812 2.49609C5.69774 2.61969 4.57379 3.17828 3.746 4.06765C2.91822 4.95701 2.44315 6.11638 2.40944 7.32942C2.36233 12.1158 2.40944 16.908 2.40944 21.6943C2.43592 22.1806 2.5372 22.66 2.70974 23.1156C3.0803 24.1612 3.77722 25.0609 4.69819 25.6824C5.61916 26.3039 6.71566 26.6146 7.8267 26.5688C10.023 26.5101 12.2429 26.557 14.4864 26.557Z" fill="#D41E79"/>
<path d="M21.8868 14.4765C21.8903 15.9401 21.4582 17.3719 20.6452 18.5904C19.8323 19.8088 18.675 20.7593 17.32 21.3213C15.965 21.8832 14.4732 22.0315 13.0337 21.7472C11.5941 21.463 10.2716 20.759 9.23348 19.7245C8.1954 18.69 7.48852 17.3714 7.20237 15.9359C6.91622 14.5004 7.06367 13.0124 7.62606 11.6606C8.18845 10.3087 9.14046 9.15369 10.3615 8.34187C11.5826 7.53005 13.0177 7.09794 14.4852 7.10026C15.4576 7.09716 16.421 7.28579 17.32 7.65531C18.219 8.02484 19.036 8.56796 19.7238 9.25345C20.4117 9.93894 20.9569 10.7533 21.3281 11.6496C21.6993 12.546 21.8892 13.5067 21.8868 14.4765ZM14.4852 9.48462C13.4906 9.47997 12.5169 9.76996 11.6877 10.3178C10.8585 10.8657 10.2111 11.6468 9.82749 12.5621C9.44389 13.4774 9.3414 14.4857 9.53301 15.4591C9.72462 16.4326 10.2017 17.3274 10.9038 18.0301C11.6059 18.7328 12.5014 19.2118 13.4767 19.4063C14.452 19.6009 15.4633 19.5022 16.3824 19.1229C17.3015 18.7435 18.0869 18.1005 18.6391 17.2754C19.1914 16.4503 19.4856 15.4803 19.4844 14.4883C19.486 13.8322 19.3578 13.1823 19.1074 12.5757C18.8569 11.9691 18.489 11.4177 18.0247 10.9529C17.5604 10.4882 17.0088 10.1194 16.4015 9.86742C15.7942 9.61547 15.143 9.48539 14.4852 9.48462Z" fill="#D41E79"/>
<path d="M22.1814 5.08C22.403 5.07998 22.6224 5.12389 22.8268 5.20917C23.0313 5.29445 23.2167 5.41941 23.3723 5.57679C23.5279 5.73416 23.6506 5.92081 23.7332 6.12589C23.8159 6.33096 23.8568 6.55038 23.8537 6.77137C23.8235 7.2148 23.623 7.62953 23.294 7.92925C22.9649 8.22898 22.5327 8.39062 22.0872 8.38053C21.6545 8.3536 21.2484 8.16296 20.9518 7.84753C20.6553 7.53211 20.4906 7.11569 20.4915 6.68328C20.4928 6.46612 20.5381 6.25147 20.6246 6.05216C20.711 5.85285 20.8369 5.67298 20.9947 5.52331C21.1524 5.37363 21.3389 5.25723 21.5428 5.18106C21.7467 5.10489 21.9639 5.07052 22.1814 5.08Z" fill="#D41E79"/>
</g>
<defs>
<clipPath id="clip0">
<rect width="29" height="29" fill="white"/>
</clipPath>
</defs>
</svg>
