<svg width="34" height="28" viewBox="0 0 34 28" fill="none" xmlns="http://www.w3.org/2000/svg">
<g clip-path="url(#clip0)">
<path d="M32.7481 0.592633C32.2281 1.99057 31.3409 3.21776 30.1825 4.14144L30.2788 4.31574L33.8831 3.21415L33.9931 3.39542C33.9162 3.59454 33.817 3.78403 33.6973 3.96016C33.0095 4.7759 32.3217 5.59164 31.5582 6.37251C31.0733 6.81272 30.7649 7.41813 30.6915 8.07371C30.6089 9.13347 30.4645 10.1653 30.3132 11.2321C29.9913 13.4075 29.2927 15.5082 28.2496 17.4373C26.5495 20.7363 23.965 23.4817 20.7934 25.3576C18.8288 26.5006 16.6789 27.2797 14.4447 27.6584C12.3214 28.041 10.1537 28.0997 8.01335 27.8327C5.22826 27.4917 2.53996 26.5834 0.110055 25.1624C0.110055 25.1624 0.0756625 25.0996 0 24.9671C3.65244 25.0926 7.06413 24.507 10.0562 21.8924C6.87153 21.5438 4.55351 20.1843 3.52175 17.0886C3.99402 17.1519 4.46933 17.1891 4.94558 17.2002C5.41617 17.1741 5.88008 17.0754 6.32126 16.9074C3.0265 15.8058 0.942343 13.8118 1.00425 10.0259C1.99474 10.3048 2.8683 10.8416 4.07202 10.6604C0.962978 8.05976 0.371434 4.9502 1.91908 1.24801C3.0272 2.62015 4.33815 3.8102 5.80538 4.7759C8.07413 6.36456 10.5966 7.54393 13.2616 8.26196C13.9916 8.40491 14.733 8.47959 15.4764 8.48506C15.9579 8.48506 16.1643 8.29682 16.1643 7.75299C16.0643 6.58306 16.2535 5.40632 16.7146 4.32904C17.1758 3.25177 17.8944 2.3079 18.8056 1.58267C19.6551 0.888912 20.6473 0.397213 21.7092 0.143814C22.7711 -0.109585 23.8755 -0.118226 24.9411 0.118529C26.2225 0.346608 27.4145 0.936223 28.3803 1.81972C28.5066 1.91008 28.6511 1.97073 28.8035 1.99727C28.9558 2.0238 29.112 2.01555 29.2608 1.97311C30.3957 1.56176 31.5375 1.07371 32.7481 0.592633Z" fill="#D41E79"/>
</g>
<defs>
<clipPath id="clip0">
<rect width="34" height="28" fill="white"/>
</clipPath>
</defs>
</svg>
