<svg width="30" height="29" viewBox="0 0 30 29" fill="none" xmlns="http://www.w3.org/2000/svg">
<g clip-path="url(#clip0)">
<path d="M15.0311 28.9834C12.8147 28.9834 10.5922 29.0302 8.36977 28.9834C7.09551 28.9631 5.8431 28.6603 4.70914 28.0984C3.57519 27.5365 2.59001 26.7304 1.82961 25.7423C0.603428 24.2226 -0.03869 22.3389 0.0128921 20.4127C0.0128921 16.4462 0.0128921 12.4777 0.0128921 8.50731C-0.011681 6.57318 0.657762 4.6905 1.90744 3.17925C3.15712 1.668 4.90993 0.621431 6.86796 0.21742C7.44449 0.0924369 8.03326 0.0277114 8.62411 0.0243594C12.8631 0.0243594 17.1324 -0.0107425 21.3896 0.0243594C23.3861 0.0352897 25.3174 0.712878 26.8559 1.94226C28.3945 3.17165 29.4456 4.87719 29.8312 6.76977C29.9337 7.26478 29.9844 7.76849 29.9826 8.2733C29.9826 12.5031 30.0189 16.7387 29.9826 20.9685C29.9497 22.8996 29.1773 24.7504 27.8147 26.1636C26.5164 27.6008 24.742 28.5581 22.7945 28.8723C22.3946 28.9403 21.9894 28.9755 21.5833 28.9776C19.3972 28.9776 17.2172 28.9776 15.0311 28.9776V28.9834ZM15.9757 11.8127C15.9757 11.5436 15.9757 11.2687 15.9757 10.9995C15.9757 10.7304 15.897 10.707 15.673 10.707C14.7525 10.707 13.8562 10.707 12.9116 10.707C12.6633 10.707 12.5906 10.8065 12.6027 11.0229C12.6027 11.3857 12.6451 11.7484 12.6451 12.1111C12.6451 14.693 12.6269 17.275 12.5906 19.8569C12.5906 20.1611 12.6693 20.284 13.0085 20.2781C13.826 20.2781 14.6435 20.2781 15.4671 20.2781C15.9697 20.2781 15.9697 20.2781 15.9757 19.7926C15.9757 18.0901 15.9757 16.3877 15.9757 14.6794C15.9941 14.2889 16.151 13.9165 16.4201 13.6246C16.6892 13.3327 17.054 13.1391 17.4533 13.0764C17.6472 13.0411 17.8463 13.0435 18.0392 13.0834C18.2321 13.1233 18.4148 13.2 18.5766 13.3089C18.7384 13.4179 18.8762 13.5569 18.9817 13.7179C19.0873 13.8789 19.1585 14.0586 19.1913 14.2465C19.2438 14.4731 19.2702 14.7046 19.2701 14.9368C19.2701 16.5632 19.2701 18.1896 19.2701 19.816C19.2701 20.2606 19.2701 20.2606 19.7121 20.2606C20.5418 20.2606 21.3714 20.2606 22.201 20.2606C22.5523 20.2606 22.6491 20.1553 22.6431 19.8277C22.6431 18.213 22.6431 16.5983 22.6431 14.9836C22.6409 14.5016 22.6004 14.0205 22.522 13.5444C22.4219 12.8532 22.1149 12.2054 21.6387 11.6805C21.1626 11.1557 20.538 10.7767 19.8418 10.5902C19.1457 10.4038 18.4083 10.4179 17.7203 10.631C17.0324 10.844 16.4239 11.2466 15.9697 11.7893L15.9757 11.8127ZM7.52803 15.4867C7.52803 16.961 7.52803 18.4119 7.52803 19.9037C7.52803 20.167 7.60676 20.2723 7.89743 20.2664C8.7856 20.2664 9.67377 20.2664 10.5619 20.2664C10.8587 20.2664 10.9253 20.1611 10.9253 19.8979C10.9253 16.9532 10.9253 14.0086 10.9253 11.0639C10.9253 10.7948 10.8405 10.6953 10.5559 10.7012C9.67781 10.7012 8.80579 10.7012 7.92771 10.7012C7.6007 10.7012 7.52198 10.8123 7.52803 11.099C7.53409 12.5616 7.52803 14.0242 7.52803 15.4867ZM7.37058 7.84623C7.36973 8.07752 7.4187 8.30645 7.51438 8.51847C7.61005 8.73049 7.75035 8.92096 7.92633 9.07777C8.10232 9.23459 8.31015 9.35431 8.53662 9.42934C8.76309 9.50436 9.00323 9.53305 9.2418 9.51357C9.48223 9.53297 9.72422 9.50397 9.95245 9.4284C10.1807 9.35283 10.3902 9.23234 10.5678 9.07453C10.7453 8.91672 10.8871 8.72504 10.984 8.5116C11.081 8.29816 11.1311 8.06761 11.1311 7.83453C11.1311 7.60144 11.081 7.37089 10.984 7.15745C10.8871 6.94401 10.7453 6.75233 10.5678 6.59452C10.3902 6.43672 10.1807 6.31622 9.95245 6.24065C9.72422 6.16508 9.48223 6.13608 9.2418 6.15549C9.00098 6.13487 8.75837 6.16354 8.52979 6.23962C8.30121 6.3157 8.09181 6.43749 7.91524 6.59703C7.73867 6.75657 7.5989 6.95028 7.50505 7.16553C7.4112 7.38078 7.36538 7.61272 7.37058 7.84623Z" fill="#D41E79"/>
</g>
<defs>
<clipPath id="clip0">
<rect width="30" height="29" fill="white"/>
</clipPath>
</defs>
</svg>
