<svg
width="27"
height="17"
viewBox="0 0 27 17"
fill="none"
xmlns="http://www.w3.org/2000/svg"
>
<path
d="M26.5518 2.35774C26.4154 2.27908 26.2607 2.23739 26.1031 2.23686C25.9454 2.23633 25.7904 2.27697 25.6535 2.35472L20.7 5.16867V4.47368C20.6986 3.28761 20.2241 2.1505 19.3805 1.31182C18.5368 0.473132 17.3931 0.00136164 16.2 0H1.8C1.32277 0.00053284 0.865249 0.189237 0.5278 0.524713C0.19035 0.860189 0.000535974 1.31504 0 1.78947V12.5263C0.00136965 13.7124 0.475915 14.8495 1.31953 15.6882C2.16315 16.5269 3.30695 16.9986 4.5 17H18.9C19.3772 16.9995 19.8347 16.8108 20.1722 16.4753C20.5096 16.1398 20.6995 15.685 20.7 15.2105V11.8313L25.6535 14.6453C25.7904 14.723 25.9454 14.7637 26.103 14.7632C26.2607 14.7626 26.4154 14.7209 26.5517 14.6423C26.6881 14.5636 26.8013 14.4507 26.8799 14.3149C26.9586 14.1791 27 14.0251 27 13.8684V3.13158C27 2.97486 26.9586 2.82089 26.88 2.68509C26.8013 2.54928 26.6881 2.43639 26.5518 2.35774ZM18.9 15.2105H4.5C3.78416 15.2097 3.09787 14.9267 2.5917 14.4235C2.08553 13.9202 1.8008 13.238 1.8 12.5263V1.78947H16.2C16.9158 1.79027 17.6021 2.07333 18.1083 2.57654C18.6145 3.07976 18.8992 3.76203 18.9 4.47368L18.9002 6.72384V6.73312L18.9006 10.2617C18.9003 10.2711 18.9006 10.2804 18.9006 10.2897L18.9011 15.2105H18.9ZM25.2 12.3267L20.7 9.77019V7.22981L25.2 4.67332V12.3267Z"
fill="white"
/>
</svg>